<svg width="30" height="27" viewBox="0 0 30 27" fill="none" xmlns="http://www.w3.org/2000/svg">
<path d="M29.1677 1.6875C29.0656 1.6875 28.9604 1.70701 28.8573 1.74867L20.0005 5.0625H20L11.0417 1.86047C10.7017 1.74605 10.3458 1.68765 9.9875 1.6875C9.63906 1.6875 9.29115 1.74287 8.95573 1.85309L1.04792 4.63799C0.738634 4.76324 0.473505 4.97943 0.286724 5.25869C0.099942 5.53795 7.40733e-05 5.86746 0 6.20473L0 24.4677C0 24.9523 0.392187 25.3125 0.832812 25.3125C0.934896 25.3125 1.03958 25.293 1.14323 25.2513L10 21.9375L18.9583 25.139C19.6349 25.3676 20.366 25.3704 21.0443 25.1469L28.9521 22.362C29.2614 22.2368 29.5266 22.0206 29.7134 21.7414C29.9002 21.4621 30 21.1326 30 20.7953V2.5323C30 2.04768 29.6078 1.6875 29.1677 1.6875ZM11.6667 4.76824L18.3333 7.15131V22.2318L11.6667 19.8487V4.76824ZM2.5 22.0456V6.80643L9.16667 4.45816V19.5507L9.13333 19.5629L2.5 22.0456ZM27.5 20.193L20.8333 22.5413V7.44926L20.8667 7.4366L27.5 4.95439V20.193Z" fill="white"/>
</svg>
